<?xml version="1.0" encoding="UTF-8" standalone="no"?>
<svg width="65px" height="64px" viewBox="0 0 65 64" version="1.1" xmlns="http://www.w3.org/2000/svg" xmlns:xlink="http://www.w3.org/1999/xlink" xmlns:sketch="http://www.bohemiancoding.com/sketch/ns">
    <!-- Generator: Sketch 3.4.4 (17249) - http://www.bohemiancoding.com/sketch -->
    <title>pages-icon</title>
    <desc>Created with Sketch.</desc>
    <defs></defs>
    <g id="Page-1" stroke="none" stroke-width="1" fill="none" fill-rule="evenodd" sketch:type="MSPage">
        <g id="Group" sketch:type="MSLayerGroup" transform="translate(1.000000, 0.000000)">
            <path d="M-0.246,3.84 C-0.246,1.719 1.473,0 3.594,0 L31.754,0 L47.754,13.44 L47.754,60.16 C47.754,62.281 46.035,64 43.914,64 L3.594,64 C1.473,64 -0.246,62.281 -0.246,60.16 L-0.246,3.84 Z" id="Fill-392" fill="#FFFFFF" sketch:type="MSShapeGroup"></path>
            <path d="M31.754,0 L31.754,9.6 C31.754,11.721 33.473,13.44 35.594,13.44 L47.754,13.44 L31.754,0 Z" id="Fill-393" fill="#F0F1F1" sketch:type="MSShapeGroup"></path>
            <path d="M53.754,18.5 L58.754,8 L63.754,18.5 L63.754,57 L53.754,57 L53.754,18.5 Z" id="Fill-394" fill="#F4D0A1" sketch:type="MSShapeGroup"></path>
            <path d="M63.754,24 L63.754,18.5 L58.754,8 L58.754,24 L63.754,24 Z" id="Fill-395" fill="#EDBC7C" sketch:type="MSShapeGroup"></path>
            <path d="M63.754,61 C63.754,62.657 62.411,64 60.754,64 L56.754,64 C55.097,64 53.754,62.657 53.754,61 L53.754,59 L63.754,59 L63.754,61 Z" id="Fill-396" fill="#F89392" sketch:type="MSShapeGroup"></path>
            <path d="M38.754,22 C38.754,22.55 38.304,23 37.754,23 L22.754,23 C22.204,23 21.754,22.55 21.754,22 C21.754,21.45 22.204,21 22.754,21 L37.754,21 C38.304,21 38.754,21.45 38.754,22" id="Fill-397" fill="#E2E4E5" sketch:type="MSShapeGroup"></path>
            <path d="M32.754,27 C32.754,27.55 32.304,28 31.754,28 L22.754,28 C22.204,28 21.754,27.55 21.754,27 C21.754,26.45 22.204,26 22.754,26 L31.754,26 C32.304,26 32.754,26.45 32.754,27" id="Fill-398" fill="#E2E4E5" sketch:type="MSShapeGroup"></path>
            <path d="M38.754,35 C38.754,35.55 38.304,36 37.754,36 L22.754,36 C22.204,36 21.754,35.55 21.754,35 C21.754,34.45 22.204,34 22.754,34 L37.754,34 C38.304,34 38.754,34.45 38.754,35" id="Fill-399" fill="#E2E4E5" sketch:type="MSShapeGroup"></path>
            <path d="M32.754,40 C32.754,40.55 32.304,41 31.754,41 L22.754,41 C22.204,41 21.754,40.55 21.754,40 C21.754,39.45 22.204,39 22.754,39 L31.754,39 C32.304,39 32.754,39.45 32.754,40" id="Fill-400" fill="#E2E4E5" sketch:type="MSShapeGroup"></path>
            <path d="M38.754,48 C38.754,48.55 38.304,49 37.754,49 L22.754,49 C22.204,49 21.754,48.55 21.754,48 C21.754,47.45 22.204,47 22.754,47 L37.754,47 C38.304,47 38.754,47.45 38.754,48" id="Fill-401" fill="#E2E4E5" sketch:type="MSShapeGroup"></path>
            <path d="M32.754,53 C32.754,53.55 32.304,54 31.754,54 L22.754,54 C22.204,54 21.754,53.55 21.754,53 C21.754,52.45 22.204,52 22.754,52 L31.754,52 C32.304,52 32.754,52.45 32.754,53" id="Fill-402" fill="#E2E4E5" sketch:type="MSShapeGroup"></path>
            <path d="M11.8213,29 L8.0473,25.226 C7.6563,24.835 7.6563,24.202 8.0473,23.812 C8.4373,23.421 9.0703,23.421 9.4613,23.812 L11.6873,26.037 L15.9853,20.878 C16.3393,20.454 16.9703,20.397 17.3943,20.75 C17.8183,21.104 17.8763,21.734 17.5223,22.159 L11.8213,29 Z" id="Fill-403" fill="#11B3A0" sketch:type="MSShapeGroup"></path>
            <path d="M11.8213,42 L8.0473,38.226 C7.6563,37.835 7.6563,37.202 8.0473,36.812 C8.4373,36.421 9.0703,36.421 9.4613,36.812 L11.6873,39.037 L15.9853,33.878 C16.3393,33.454 16.9703,33.397 17.3943,33.75 C17.8183,34.104 17.8763,34.734 17.5223,35.159 L11.8213,42 Z" id="Fill-404" fill="#11B3A0" sketch:type="MSShapeGroup"></path>
            <path d="M11.8213,55 L8.0473,51.226 C7.6563,50.835 7.6563,50.202 8.0473,49.812 C8.4373,49.421 9.0703,49.421 9.4613,49.812 L11.6873,52.037 L15.9853,46.878 C16.3393,46.454 16.9703,46.397 17.3943,46.75 C17.8183,47.104 17.8763,47.734 17.5223,48.159 L11.8213,55 Z" id="Fill-405" fill="#11B3A0" sketch:type="MSShapeGroup"></path>
            <path d="M63.754,59 L53.754,59 L53.754,56 L63.754,56 L63.754,59 Z" id="Fill-406" fill="#FACB1B" sketch:type="MSShapeGroup"></path>
            <path d="M58.754,59 L53.754,59 L53.754,57 L58.754,57 L58.754,59 Z" id="Fill-407" fill="#FBE158" sketch:type="MSShapeGroup"></path>
            <path d="M58.7672,7.9844 L56.9102,11.8834 C57.4222,12.5624 58.0622,12.9844 58.7672,12.9844 C59.4722,12.9844 60.1122,12.5624 60.6242,11.8834 L58.7672,7.9844 Z" id="Fill-408" fill="#3E3E3F" sketch:type="MSShapeGroup"></path>
            <path d="M61.254,20 C60.1,20 59.128,19.218 58.841,18.155 C58.814,18.058 58.694,18.058 58.667,18.155 C58.38,19.218 57.408,20 56.254,20 C55.202,20 54.301,19.35 53.932,18.429 C53.893,18.332 53.754,18.359 53.754,18.464 L53.754,57 L63.754,57 L63.754,18.464 C63.754,18.359 63.615,18.332 63.576,18.429 C63.207,19.35 62.306,20 61.254,20" id="Fill-409" fill="#0484AB" sketch:type="MSShapeGroup"></path>
            <path d="M53.754,57 L53.754,18.493 C53.754,18.382 53.901,18.354 53.944,18.457 C54.319,19.363 55.212,20 56.254,20 C57.413,20 58.388,19.211 58.671,18.141 C58.685,18.089 58.754,18.095 58.754,18.15 L58.754,57 L53.754,57 Z" id="Fill-410" fill="#21B2D1" sketch:type="MSShapeGroup"></path>
            <path d="M53.754,59 L53.754,61 C53.754,62.657 55.097,64 56.754,64 L58.754,64 L58.754,59 L53.754,59 Z" id="Fill-411" fill="#F8B4B4" sketch:type="MSShapeGroup"></path>
        </g>
    </g>
</svg>